<svg width="64" height="64" viewBox="0 0 64 64" fill="none" xmlns="http://www.w3.org/2000/svg">
  <rect x="3" y="3" width="58" height="58" rx="15" fill="#081221" stroke="#1E3A5F" stroke-width="2.2"/>
  <rect x="8" y="8" width="48" height="48" rx="11" fill="none" stroke="#153352" stroke-width="1.2"/>
  <path d="M40.2 23.6C38.8 22.1 36.9 21.2 34.5 21.2H30.6C28.3 21.2 26.8 22.4 26.8 24.1C26.8 25.6 28 26.5 30.4 26.9L34.9 27.6C39.1 28.2 41.8 30.5 41.8 34.1C41.8 38.4 38.3 41.2 33.2 41.2H29.8C26.4 41.2 23.7 40.1 21.7 37.7L24.8 35.1C26.4 36.8 28.3 37.6 30.6 37.6H33.8C36.2 37.6 37.8 36.4 37.8 34.6C37.8 33 36.7 32 34.2 31.6L29.8 30.9C25.4 30.2 22.8 28 22.8 24.4C22.8 20.3 26.1 17.6 30.9 17.6H34.8C38.2 17.6 40.8 18.7 42.9 20.9L40.2 23.6Z" fill="#E8F4FF"/>
  <circle cx="45.8" cy="19.6" r="1.8" fill="#22D3EE"/>
</svg>
